<svg width="20" height="20" viewBox="0 0 20 20" fill="none" xmlns="http://www.w3.org/2000/svg">
    <mask id="mask0_55_1302" style="mask-type:alpha" maskUnits="userSpaceOnUse" x="0" y="0"
        width="20" height="20">
        <rect width="20" height="20" fill="#D9D9D9" />
    </mask>
    <g mask="url(#mask0_55_1302)">
        <path
            d="M4.75642 17.5833C4.38128 17.5833 4.0642 17.4514 3.80517 17.1875C3.54614 16.9236 3.41663 16.609 3.41663 16.2435V5.75646C3.41663 5.39104 3.54614 5.07639 3.80517 4.8125C4.0642 4.54861 4.38128 4.41667 4.75642 4.41667H6.57683V2.87813C6.57683 2.7191 6.62961 2.58639 6.73517 2.48C6.84072 2.37375 6.97239 2.32063 7.13017 2.32063C7.28808 2.32063 7.42121 2.37375 7.52954 2.48C7.63802 2.58639 7.69225 2.7191 7.69225 2.87813V4.41667H12.3398V2.86229C12.3398 2.70854 12.3911 2.57979 12.4939 2.47604C12.5968 2.37243 12.7245 2.32063 12.877 2.32063C13.0295 2.32063 13.1586 2.37243 13.2643 2.47604C13.3702 2.57979 13.4231 2.70854 13.4231 2.86229V4.41667H15.2435C15.6186 4.41667 15.9357 4.54861 16.1948 4.8125C16.4538 5.07639 16.5833 5.39104 16.5833 5.75646V16.2435C16.5833 16.609 16.4538 16.9236 16.1948 17.1875C15.9357 17.4514 15.6186 17.5833 15.2435 17.5833H4.75642ZM4.75642 16.5H15.2435C15.3077 16.5 15.3664 16.4733 15.4198 16.4198C15.4732 16.3665 15.5 16.3077 15.5 16.2435V9.25646H4.49996V16.2435C4.49996 16.3077 4.5267 16.3665 4.58017 16.4198C4.6335 16.4733 4.69225 16.5 4.75642 16.5ZM4.49996 8.17313H15.5V5.75646C15.5 5.69229 15.4732 5.63354 15.4198 5.58021C15.3664 5.52674 15.3077 5.5 15.2435 5.5H4.75642C4.69225 5.5 4.6335 5.52674 4.58017 5.58021C4.5267 5.63354 4.49996 5.69229 4.49996 5.75646V8.17313ZM10.0043 12.0642C9.82517 12.0642 9.67065 12.0007 9.54079 11.8738C9.41107 11.7469 9.34621 11.5939 9.34621 11.4146C9.34621 11.2354 9.40961 11.0809 9.53642 10.951C9.66336 10.8213 9.81642 10.7565 9.99558 10.7565C10.1748 10.7565 10.3293 10.8199 10.4591 10.9467C10.5888 11.0736 10.6537 11.2267 10.6537 11.4058C10.6537 11.5851 10.5903 11.7397 10.4635 11.8694C10.3366 11.9992 10.1835 12.0642 10.0043 12.0642ZM6.75433 12.0642C6.57517 12.0642 6.42065 12.0007 6.29079 11.8738C6.16107 11.7469 6.09621 11.5939 6.09621 11.4146C6.09621 11.2354 6.15961 11.0809 6.28642 10.951C6.41336 10.8213 6.56642 10.7565 6.74558 10.7565C6.92475 10.7565 7.07927 10.8199 7.20913 10.9467C7.33885 11.0736 7.40371 11.2267 7.40371 11.4058C7.40371 11.5851 7.34031 11.7397 7.2135 11.8694C7.08656 11.9992 6.9335 12.0642 6.75433 12.0642ZM13.2543 12.0642C13.0752 12.0642 12.9207 12.0007 12.7908 11.8738C12.6611 11.7469 12.5962 11.5939 12.5962 11.4146C12.5962 11.2354 12.6596 11.0809 12.7864 10.951C12.9134 10.8213 13.0664 10.7565 13.2456 10.7565C13.4248 10.7565 13.5793 10.8199 13.7091 10.9467C13.8388 11.0736 13.9037 11.2267 13.9037 11.4058C13.9037 11.5851 13.8403 11.7397 13.7135 11.8694C13.5866 11.9992 13.4335 12.0642 13.2543 12.0642ZM10.0043 15C9.82517 15 9.67065 14.9365 9.54079 14.8096C9.41107 14.6828 9.34621 14.5298 9.34621 14.3506C9.34621 14.1713 9.40961 14.0168 9.53642 13.8871C9.66336 13.7572 9.81642 13.6923 9.99558 13.6923C10.1748 13.6923 10.3293 13.7558 10.4591 13.8827C10.5888 14.0095 10.6537 14.1626 10.6537 14.3419C10.6537 14.521 10.5903 14.6755 10.4635 14.8052C10.3366 14.9351 10.1835 15 10.0043 15ZM6.75433 15C6.57517 15 6.42065 14.9365 6.29079 14.8096C6.16107 14.6828 6.09621 14.5298 6.09621 14.3506C6.09621 14.1713 6.15961 14.0168 6.28642 13.8871C6.41336 13.7572 6.56642 13.6923 6.74558 13.6923C6.92475 13.6923 7.07927 13.7558 7.20913 13.8827C7.33885 14.0095 7.40371 14.1626 7.40371 14.3419C7.40371 14.521 7.34031 14.6755 7.2135 14.8052C7.08656 14.9351 6.9335 15 6.75433 15ZM13.2543 15C13.0752 15 12.9207 14.9365 12.7908 14.8096C12.6611 14.6828 12.5962 14.5298 12.5962 14.3506C12.5962 14.1713 12.6596 14.0168 12.7864 13.8871C12.9134 13.7572 13.0664 13.6923 13.2456 13.6923C13.4248 13.6923 13.5793 13.7558 13.7091 13.8827C13.8388 14.0095 13.9037 14.1626 13.9037 14.3419C13.9037 14.521 13.8403 14.6755 13.7135 14.8052C13.5866 14.9351 13.4335 15 13.2543 15Z"
            fill="#1C1B1F" />
    </g>
</svg>
    