<svg width="20" height="20" viewBox="0 0 20 20" fill="none" xmlns="http://www.w3.org/2000/svg">
    <mask id="mask0_55_1307" style="mask-type:alpha" maskUnits="userSpaceOnUse" x="0" y="0"
        width="20" height="20">
        <rect width="20" height="20" fill="#D9D9D9" />
    </mask>
    <g mask="url(#mask0_55_1307)">
        <path
            d="M9.99996 17.5833C8.96038 17.5833 7.97982 17.386 7.05829 16.9913C6.13676 16.5965 5.33017 16.0534 4.6385 15.3619C3.94683 14.6703 3.40364 13.8639 3.00892 12.9425C2.61406 12.0211 2.41663 11.0408 2.41663 10.0015C2.41663 8.94813 2.61406 7.96403 3.00892 7.04917C3.40364 6.13431 3.94683 5.33097 4.6385 4.63917C5.33017 3.94736 6.13676 3.40396 7.05829 3.00896C7.97982 2.6141 8.96038 2.41667 9.99996 2.41667C11.0469 2.41667 12.0311 2.60952 12.9527 2.99521C13.8742 3.3809 14.68 3.92576 15.3702 4.62979C16.0742 5.31993 16.6191 6.12577 17.0048 7.04729C17.3904 7.96882 17.5833 8.95306 17.5833 10C17.5833 10.2607 17.5697 10.5163 17.5425 10.7669C17.5152 11.0174 17.477 11.2719 17.4279 11.5304C17.4001 11.6747 17.3159 11.7864 17.1754 11.8654C17.035 11.9444 16.8995 11.9589 16.7691 11.9088C16.6388 11.8585 16.5368 11.768 16.4631 11.6373C16.3893 11.5066 16.3663 11.3674 16.3941 11.2196C16.4487 11.0199 16.48 10.8214 16.4879 10.6242C16.4959 10.4271 16.5 10.219 16.5 10C16.5 9.09917 16.332 8.25375 15.996 7.46375C15.66 6.67375 15.1934 5.98708 14.5962 5.40375C14.0129 4.80653 13.3262 4.33993 12.5362 4.00396C11.7462 3.66799 10.9008 3.5 9.99996 3.5C8.1944 3.5 6.65968 4.13195 5.39579 5.39583C4.1319 6.65972 3.49996 8.19445 3.49996 10C3.49996 11.8056 4.1319 13.3403 5.39579 14.6042C6.65968 15.8681 8.1944 16.5 9.99996 16.5C10.6261 16.5 11.2343 16.4185 11.8245 16.2556C12.4148 16.0927 12.9845 15.8355 13.5337 15.484C13.6661 15.3995 13.8036 15.3711 13.9462 15.3988C14.0888 15.4264 14.2066 15.4986 14.2995 15.6154C14.3926 15.734 14.4279 15.8646 14.4056 16.0071C14.3834 16.1497 14.3069 16.2606 14.1762 16.3398C13.5202 16.7585 12.8477 17.0705 12.1587 17.2756C11.4695 17.4808 10.75 17.5833 9.99996 17.5833ZM15.8802 14.7917C15.6609 14.7917 15.4741 14.7147 15.3198 14.5606C15.1653 14.4065 15.0881 14.2197 15.0881 14.0004C15.0881 13.7811 15.1651 13.5943 15.3191 13.44C15.4733 13.2856 15.66 13.2083 15.8793 13.2083C16.0986 13.2083 16.2854 13.2853 16.4398 13.4394C16.5942 13.5935 16.6714 13.7803 16.6714 13.9996C16.6714 14.2189 16.5944 14.4057 16.4404 14.56C16.2862 14.7144 16.0995 14.7917 15.8802 14.7917ZM10.5416 9.45521L13.3333 12.2469C13.4487 12.3622 13.5043 12.4898 13.5 12.6298C13.4957 12.7698 13.4332 12.9001 13.3125 13.0208C13.1918 13.1415 13.0627 13.2019 12.9254 13.2019C12.7882 13.2019 12.6592 13.1415 12.5385 13.0208L9.6635 10.125C9.59933 10.0608 9.54913 9.98972 9.51288 9.91167C9.47649 9.83361 9.45829 9.74556 9.45829 9.6475V5.54167C9.45829 5.39236 9.51128 5.26472 9.61725 5.15875C9.72322 5.05292 9.85086 5 10.0002 5C10.1496 5 10.2772 5.05292 10.3829 5.15875C10.4887 5.26472 10.5416 5.39236 10.5416 5.54167V9.45521Z"
            fill="#1C1B1F" />
    </g>
</svg>
    