<svg width="20" height="20" viewBox="0 0 20 20" fill="none" xmlns="http://www.w3.org/2000/svg">
    <mask id="mask0_64_1716" style="mask-type:alpha" maskUnits="userSpaceOnUse" x="0" y="0"
        width="20" height="20">
        <rect width="20" height="20" fill="#D9D9D9" />
    </mask>
    <g mask="url(#mask0_64_1716)">
        <path
            d="M4.16667 17.5C3.70833 17.5 3.31597 17.3368 2.98958 17.0104C2.66319 16.684 2.5 16.2917 2.5 15.8333V4.16665C2.5 3.70832 2.66319 3.31596 2.98958 2.98957C3.31597 2.66318 3.70833 2.49998 4.16667 2.49998H11.6042L9.9375 4.16665H4.16667V15.8333H15.8333V10.0417L17.5 8.37498V15.8333C17.5 16.2917 17.3368 16.684 17.0104 17.0104C16.684 17.3368 16.2917 17.5 15.8333 17.5H4.16667ZM7.5 12.5V8.95832L15.1458 1.31248C15.3125 1.14582 15.5 1.02082 15.7083 0.937485C15.9167 0.854151 16.125 0.812485 16.3333 0.812485C16.5556 0.812485 16.7674 0.854151 16.9688 0.937485C17.1701 1.02082 17.3542 1.14582 17.5208 1.31248L18.6875 2.49998C18.8403 2.66665 18.9583 2.85068 19.0417 3.05207C19.125 3.25346 19.1667 3.45832 19.1667 3.66665C19.1667 3.87498 19.1285 4.07985 19.0521 4.28123C18.9757 4.48262 18.8542 4.66665 18.6875 4.83332L11.0417 12.5H7.5ZM9.16667 10.8333H10.3333L15.1667 5.99998L14.5833 5.41665L13.9792 4.83332L9.16667 9.64582V10.8333Z"
            fill="#1C1B1F" />
    </g>
</svg>
    