<svg width="20" height="20" viewBox="0 0 20 20" fill="none" xmlns="http://www.w3.org/2000/svg">
    <mask id="mask0_55_1297" style="mask-type:alpha" maskUnits="userSpaceOnUse" x="0" y="0"
        width="20" height="20">
        <rect width="20" height="20" fill="#D9D9D9" />
    </mask>
    <g mask="url(#mask0_55_1297)">
        <path
            d="M9.99996 9.74354C9.28121 9.74354 8.671 9.49271 8.16933 8.99104C7.66753 8.48924 7.41663 7.87896 7.41663 7.16021C7.41663 6.44146 7.66753 5.83125 8.16933 5.32958C8.671 4.82778 9.28121 4.57687 9.99996 4.57687C10.7187 4.57687 11.3289 4.82778 11.8306 5.32958C12.3324 5.83125 12.5833 6.44146 12.5833 7.16021C12.5833 7.87896 12.3324 8.48924 11.8306 8.99104C11.3289 9.49271 10.7187 9.74354 9.99996 9.74354ZM4.41663 14.3237V13.9037C4.41663 13.6485 4.49274 13.4025 4.64496 13.1658C4.79718 12.9292 5.0101 12.7243 5.28371 12.5512C6.0101 12.1336 6.77357 11.8134 7.57413 11.5906C8.37468 11.3678 9.18183 11.2565 9.99558 11.2565C10.8093 11.2565 11.6179 11.3678 12.4214 11.5906C13.2249 11.8134 13.9898 12.1336 14.7162 12.5512C14.9898 12.7104 15.2027 12.9118 15.355 13.1554C15.5072 13.399 15.5833 13.6485 15.5833 13.9037V14.3237C15.5833 14.6293 15.4764 14.889 15.2627 15.1027C15.0488 15.3163 14.7889 15.4231 14.4831 15.4231H5.51017C5.2042 15.4231 4.94545 15.3163 4.73392 15.1027C4.52239 14.889 4.41663 14.6293 4.41663 14.3237ZM5.49996 14.3398H14.5V13.9037C14.5 13.8158 14.4683 13.7331 14.405 13.6556C14.3415 13.5781 14.2541 13.5124 14.1427 13.4583C13.5357 13.0908 12.88 12.8125 12.1756 12.6233C11.471 12.4343 10.7458 12.3398 9.99996 12.3398C9.25413 12.3398 8.52892 12.4343 7.82433 12.6233C7.11989 12.8125 6.4642 13.0908 5.85725 13.4583C5.74517 13.5353 5.6576 13.609 5.59454 13.6794C5.53149 13.7498 5.49996 13.8246 5.49996 13.9037V14.3398ZM10.0043 8.66021C10.4181 8.66021 10.7708 8.51292 11.0625 8.21833C11.3541 7.92375 11.5 7.56958 11.5 7.15583C11.5 6.74208 11.3527 6.38937 11.0581 6.09771C10.7635 5.80604 10.4093 5.66021 9.99558 5.66021C9.58183 5.66021 9.22913 5.80757 8.93746 6.10229C8.64579 6.39687 8.49996 6.75104 8.49996 7.16479C8.49996 7.5784 8.64725 7.93104 8.94183 8.22271C9.23642 8.51437 9.59058 8.66021 10.0043 8.66021Z"
            fill="#1C1B1F" />
    </g>
</svg>
    