<svg width="20" height="20" viewBox="0 0 20 20" fill="none" xmlns="http://www.w3.org/2000/svg">
    <mask id="mask0_55_233" style="mask-type:alpha" maskUnits="userSpaceOnUse" x="0" y="0"
        width="20" height="20">
        <rect width="20" height="20" fill="#D9D9D9" />
    </mask>
    <g mask="url(#mask0_55_233)">
        <path
            d="M6.54167 5.45829L8.83333 2.49996C8.98347 2.29926 9.16188 2.15183 9.36854 2.05767C9.57507 1.96364 9.79097 1.91663 10.0163 1.91663C10.2415 1.91663 10.4549 1.96524 10.6562 2.06246C10.8576 2.15968 11.0347 2.30551 11.1875 2.49996L13.4792 5.45829L16.9792 6.60413C17.2986 6.71524 17.5486 6.90065 17.7292 7.16038C17.9097 7.41996 18 7.70677 18 8.02079C18 8.16968 17.979 8.31864 17.9369 8.46767C17.8947 8.61656 17.8254 8.75926 17.7292 8.89579L15.4792 12.0416L15.5625 15.4166C15.5625 15.8472 15.4167 16.2118 15.125 16.5104C14.8333 16.809 14.4849 16.9583 14.0796 16.9583C14.0543 16.9583 13.9236 16.9375 13.6875 16.8958L10 15.875L6.31146 16.8966C6.24271 16.9238 6.17708 16.9409 6.11458 16.9479C6.05208 16.9548 5.98938 16.9583 5.92646 16.9583C5.52382 16.9583 5.17153 16.809 4.86958 16.5104C4.56764 16.2118 4.42361 15.8472 4.4375 15.4166L4.52083 12.0416L2.27083 8.89579C2.17361 8.7569 2.10417 8.61801 2.0625 8.47913C2.02083 8.34024 2 8.19419 2 8.041C2 7.72197 2.09153 7.43038 2.27458 7.16621C2.45764 6.90204 2.71333 6.71468 3.04167 6.60413L6.54167 5.45829ZM7.41667 6.74996L3.5 8.04163L6.01875 11.605L5.9375 15.4583L10 14.3125L14.0833 15.4375L13.9792 11.5833L16.5 8.02079L12.5625 6.74996L10 3.45829L7.41667 6.74996Z"
            fill="white" />
    </g>
</svg>
    